<svg width="285" height="193" xmlns="http://www.w3.org/2000/svg" xmlns:xlink="http://www.w3.org/1999/xlink" overflow="hidden"><defs><clipPath id="clip0"><path d="M100 390 385 390 385 583 100 583Z" fill-rule="evenodd" clip-rule="evenodd"/></clipPath></defs><g clip-path="url(#clip0)" transform="translate(-100 -390)"><path d="M102 486.206 132.062 470.897C158.785 447.935 179.023 402.598 198.082 394.944L196.903 411.43C208.496 400.047 221.857 395.14 238.755 392L234.628 406.72C264.298 402.009 279.231 403.187 304.185 404.953L291.216 419.673C309.883 419.477 323.833 423.402 333.068 427.916L327.763 445.579C346.626 456.374 349.573 460.692 356.057 470.897L340.731 478.551C351.931 486.991 352.52 491.308 354.289 497.981 362.541 495.822 373.741 493.075 381.404 492.093 384.744 497.589 384.548 502.495 382.583 506.813 374.527 508.383 362.345 505.832 353.699 505.047 351.734 510.542 353.306 518.392 349.573 525.654 345.643 530.757 344.071 537.626 337.784 540.963 329.138 545.084 309.883 544.495 296.522 547.439L297.701 579.822 264.691 580.411 262.923 547.439 211.05 548.028 208.103 580.411 176.272 581 170.967 544.495C150.925 539.981 125.578 538.411 102 523.888L102 486.206Z" stroke="#212121" stroke-width="2" stroke-miterlimit="8" fill="#842929" fill-rule="evenodd"/></g></svg>