<?xml version="1.0" encoding="UTF-8"?>
<svg xmlns="http://www.w3.org/2000/svg" xmlns:xlink="http://www.w3.org/1999/xlink" width="36pt" height="25pt" viewBox="0 0 36 25" version="1.1">
<g id="surface1">
<path style="fill-rule:evenodd;fill:rgb(51.764706%,16.078431%,16.078431%);fill-opacity:1;stroke-width:2;stroke-linecap:butt;stroke-linejoin:miter;stroke:rgb(12.941176%,12.941176%,12.941176%);stroke-opacity:1;stroke-miterlimit:8;" d="M 102.010091 486.198438 L 132.068685 470.909219 C 158.787435 447.930156 179.012044 402.605313 198.092448 394.945625 L 196.917318 411.441094 C 208.483073 400.042031 221.842448 395.126562 238.758138 391.990313 L 234.614258 406.706563 C 264.301758 402.002187 279.238281 403.178281 304.194336 404.9575 L 291.206055 419.67375 C 309.88444 419.462656 323.83138 423.413125 333.077799 427.906406 L 327.758789 445.577969 C 346.622721 456.373906 349.560547 460.68625 356.054688 470.909219 L 340.716146 478.53875 C 351.941732 486.9825 352.529297 491.294844 354.291992 497.989531 C 362.548828 495.818281 373.74349 493.074063 381.41276 492.078906 C 384.752604 497.5975 384.536133 502.482813 382.587891 506.825312 C 374.516602 508.393438 362.332357 505.830156 353.704427 505.046094 C 351.72526 510.534531 353.302409 518.405313 349.560547 525.642812 C 345.633138 530.769375 344.05599 537.614844 337.77832 540.962188 C 329.150391 545.093594 309.88444 544.490469 296.525065 547.445781 L 297.700195 579.833594 L 264.703776 580.406563 L 262.910156 547.445781 L 211.049805 548.01875 L 208.111979 580.406563 L 176.259766 581.009688 L 170.97168 544.490469 C 150.932617 539.967031 125.574544 538.398906 102.010091 523.89375 Z M 102.010091 486.198438 " transform="matrix(0.126316,0,0,0.129534,-12.631579,-50.518135)"/>
</g>
</svg>
