<svg width="207" height="203" xmlns="http://www.w3.org/2000/svg" xmlns:xlink="http://www.w3.org/1999/xlink" overflow="hidden"><defs><clipPath id="clip0"><path d="M432 385 639 385 639 588 432 588Z" fill-rule="evenodd" clip-rule="evenodd"/></clipPath></defs><g clip-path="url(#clip0)" transform="translate(-432 -385)"><rect x="439.5" y="392.5" width="189" height="189" stroke="#212121" stroke-width="13" stroke-miterlimit="8" fill="#FBC02D"/><path d="M439 486 627.976 486" stroke="#212121" stroke-width="20" stroke-miterlimit="8" fill="none" fill-rule="evenodd"/><rect x="508" y="486" width="51" height="33" fill="#212121"/><path d="M533 401 533 474.461" stroke="#212121" stroke-width="12" stroke-miterlimit="8" fill="none" fill-rule="evenodd"/><path d="M582 401 582 474.461" stroke="#212121" stroke-width="12" stroke-miterlimit="8" fill="none" fill-rule="evenodd"/><path d="M485 401 485 474.461" stroke="#212121" stroke-width="12" stroke-miterlimit="8" fill="none" fill-rule="evenodd"/><path d="M533 498 533 571.461" stroke="#212121" stroke-width="12" stroke-miterlimit="8" fill="none" fill-rule="evenodd"/><path d="M582 498 582 571.461" stroke="#212121" stroke-width="12" stroke-miterlimit="8" fill="none" fill-rule="evenodd"/><path d="M485 498 485 571.461" stroke="#212121" stroke-width="12" stroke-miterlimit="8" fill="none" fill-rule="evenodd"/><path d="M526 495C526 490.582 529.358 487 533.5 487 537.642 487 541 490.582 541 495 541 499.418 537.642 503 533.5 503 529.358 503 526 499.418 526 495Z" fill="#FBC02D" fill-rule="evenodd"/><path d="M525 511 533.5 487 542 511Z" fill="#FBC02D" fill-rule="evenodd"/></g></svg>