<svg width="207" height="203" xmlns="http://www.w3.org/2000/svg" xmlns:xlink="http://www.w3.org/1999/xlink" overflow="hidden"><defs><clipPath id="clip0"><path d="M644 385 851 385 851 588 644 588Z" fill-rule="evenodd" clip-rule="evenodd"/></clipPath></defs><g clip-path="url(#clip0)" transform="translate(-644 -385)"><rect x="651.5" y="392.5" width="189" height="189" stroke="#212121" stroke-width="13" stroke-miterlimit="8" fill="#BDBDBD"/><path d="M651 486 839.976 486" stroke="#212121" stroke-width="20" stroke-miterlimit="8" fill="none" fill-rule="evenodd"/><rect x="720" y="486" width="51" height="33" fill="#212121"/><path d="M745 401 745 474.461" stroke="#212121" stroke-width="12" stroke-miterlimit="8" fill="none" fill-rule="evenodd"/><path d="M794 401 794 474.461" stroke="#212121" stroke-width="12" stroke-miterlimit="8" fill="none" fill-rule="evenodd"/><path d="M697 401 697 474.461" stroke="#212121" stroke-width="12" stroke-miterlimit="8" fill="none" fill-rule="evenodd"/><path d="M745 498 745 571.461" stroke="#212121" stroke-width="12" stroke-miterlimit="8" fill="none" fill-rule="evenodd"/><path d="M794 498 794 571.461" stroke="#212121" stroke-width="12" stroke-miterlimit="8" fill="none" fill-rule="evenodd"/><path d="M697 498 697 571.461" stroke="#212121" stroke-width="12" stroke-miterlimit="8" fill="none" fill-rule="evenodd"/><path d="M738 495C738 490.582 741.358 487 745.5 487 749.642 487 753 490.582 753 495 753 499.418 749.642 503 745.5 503 741.358 503 738 499.418 738 495Z" fill="#BDBDBD" fill-rule="evenodd"/><path d="M737 511 745.5 487 754 511Z" fill="#BDBDBD" fill-rule="evenodd"/></g></svg>