<?xml version="1.0" encoding="UTF-8"?>
<svg xmlns="http://www.w3.org/2000/svg" xmlns:xlink="http://www.w3.org/1999/xlink" width="25pt" height="24pt" viewBox="0 0 25 24" version="1.1">
<g id="surface1">
<path style="fill-rule:nonzero;fill:rgb(74.117647%,74.117647%,74.117647%);fill-opacity:1;stroke-width:13;stroke-linecap:butt;stroke-linejoin:miter;stroke:rgb(12.941176%,12.941176%,12.941176%);stroke-opacity:1;stroke-miterlimit:8;" d="M 651.50375 392.500163 L 840.488281 392.500163 L 840.488281 581.491048 L 651.50375 581.491048 Z M 651.50375 392.500163 " transform="matrix(0.120773,0,0,0.118227,-77.777778,-45.517241)"/>
<path style="fill:none;stroke-width:20;stroke-linecap:butt;stroke-linejoin:miter;stroke:rgb(12.941176%,12.941176%,12.941176%);stroke-opacity:1;stroke-miterlimit:8;" d="M 650.98625 486.004395 L 839.970781 486.004395 " transform="matrix(0.120773,0,0,0.118227,-77.777778,-45.517241)"/>
<path style=" stroke:none;fill-rule:nonzero;fill:rgb(12.941176%,12.941176%,12.941176%);fill-opacity:1;" d="M 9.179688 11.941406 L 15.339844 11.941406 L 15.339844 15.84375 L 9.179688 15.84375 Z M 9.179688 11.941406 "/>
<path style="fill:none;stroke-width:12;stroke-linecap:butt;stroke-linejoin:miter;stroke:rgb(12.941176%,12.941176%,12.941176%);stroke-opacity:1;stroke-miterlimit:8;" d="M 745.009531 400.991536 L 745.009531 474.473307 " transform="matrix(0.120773,0,0,0.118227,-77.777778,-45.517241)"/>
<path style="fill:none;stroke-width:12;stroke-linecap:butt;stroke-linejoin:miter;stroke:rgb(12.941176%,12.941176%,12.941176%);stroke-opacity:1;stroke-miterlimit:8;" d="M 794.010313 400.991536 L 794.010313 474.473307 " transform="matrix(0.120773,0,0,0.118227,-77.777778,-45.517241)"/>
<path style="fill:none;stroke-width:12;stroke-linecap:butt;stroke-linejoin:miter;stroke:rgb(12.941176%,12.941176%,12.941176%);stroke-opacity:1;stroke-miterlimit:8;" d="M 697.011406 400.991536 L 697.011406 474.473307 " transform="matrix(0.120773,0,0,0.118227,-77.777778,-45.517241)"/>
<path style="fill:none;stroke-width:12;stroke-linecap:butt;stroke-linejoin:miter;stroke:rgb(12.941176%,12.941176%,12.941176%);stroke-opacity:1;stroke-miterlimit:8;" d="M 745.009531 497.998047 L 745.009531 571.446777 " transform="matrix(0.120773,0,0,0.118227,-77.777778,-45.517241)"/>
<path style="fill:none;stroke-width:12;stroke-linecap:butt;stroke-linejoin:miter;stroke:rgb(12.941176%,12.941176%,12.941176%);stroke-opacity:1;stroke-miterlimit:8;" d="M 794.010313 497.998047 L 794.010313 571.446777 " transform="matrix(0.120773,0,0,0.118227,-77.777778,-45.517241)"/>
<path style="fill:none;stroke-width:12;stroke-linecap:butt;stroke-linejoin:miter;stroke:rgb(12.941176%,12.941176%,12.941176%);stroke-opacity:1;stroke-miterlimit:8;" d="M 697.011406 497.998047 L 697.011406 571.446777 " transform="matrix(0.120773,0,0,0.118227,-77.777778,-45.517241)"/>
<path style=" stroke:none;fill-rule:evenodd;fill:rgb(74.117647%,74.117647%,74.117647%);fill-opacity:1;" d="M 11.351562 13.003906 C 11.351562 12.484375 11.757812 12.058594 12.257812 12.058594 C 12.757812 12.058594 13.164062 12.484375 13.164062 13.003906 C 13.164062 13.527344 12.757812 13.949219 12.257812 13.949219 C 11.757812 13.949219 11.351562 13.527344 11.351562 13.003906 Z M 11.351562 13.003906 "/>
<path style=" stroke:none;fill-rule:evenodd;fill:rgb(74.117647%,74.117647%,74.117647%);fill-opacity:1;" d="M 11.230469 14.898438 L 12.257812 12.058594 L 13.285156 14.898438 Z M 11.230469 14.898438 "/>
</g>
</svg>
