<?xml version="1.0" encoding="UTF-8" standalone="no"?>
<!-- Created with Inkscape (http://www.inkscape.org/) -->

<svg
   width="100mm"
   height="100mm"
   viewBox="0 0 100 100"
   version="1.1"
   id="svg1"
   inkscape:version="1.3.2 (091e20e, 2023-11-25, custom)"
   sodipodi:docname="くくり罠_旧アイコン準拠.svg"
   xmlns:inkscape="http://www.inkscape.org/namespaces/inkscape"
   xmlns:sodipodi="http://sodipodi.sourceforge.net/DTD/sodipodi-0.dtd"
   xmlns="http://www.w3.org/2000/svg"
   xmlns:svg="http://www.w3.org/2000/svg">
  <sodipodi:namedview
     id="namedview1"
     pagecolor="#ffffff"
     bordercolor="#000000"
     borderopacity="0.25"
     inkscape:showpageshadow="2"
     inkscape:pageopacity="0.0"
     inkscape:pagecheckerboard="0"
     inkscape:deskcolor="#d1d1d1"
     inkscape:document-units="mm"
     inkscape:zoom="1.1019522"
     inkscape:cx="284.04135"
     inkscape:cy="262.71556"
     inkscape:window-width="1800"
     inkscape:window-height="1106"
     inkscape:window-x="-11"
     inkscape:window-y="-11"
     inkscape:window-maximized="1"
     inkscape:current-layer="layer7" />
  <defs
     id="defs1">
    <inkscape:path-effect
       effect="bspline"
       id="path-effect35"
       is_visible="true"
       lpeversion="1.3"
       weight="33.333333"
       steps="2"
       helper_size="0"
       apply_no_weight="true"
       apply_with_weight="true"
       only_selected="false"
       uniform="false" />
    <inkscape:path-effect
       effect="bspline"
       id="path-effect33"
       is_visible="true"
       lpeversion="1.3"
       weight="33.333333"
       steps="2"
       helper_size="0"
       apply_no_weight="true"
       apply_with_weight="true"
       only_selected="false"
       uniform="false" />
    <inkscape:path-effect
       effect="bspline"
       id="path-effect32"
       is_visible="true"
       lpeversion="1.3"
       weight="33.333333"
       steps="2"
       helper_size="0"
       apply_no_weight="true"
       apply_with_weight="true"
       only_selected="false"
       uniform="false" />
    <inkscape:path-effect
       effect="bspline"
       id="path-effect31"
       is_visible="true"
       lpeversion="1.3"
       weight="33.333333"
       steps="2"
       helper_size="0"
       apply_no_weight="true"
       apply_with_weight="true"
       only_selected="false"
       uniform="false" />
    <inkscape:path-effect
       effect="bspline"
       id="path-effect29"
       is_visible="true"
       lpeversion="1.3"
       weight="33.333333"
       steps="2"
       helper_size="0"
       apply_no_weight="true"
       apply_with_weight="true"
       only_selected="false"
       uniform="false" />
    <inkscape:path-effect
       effect="bspline"
       id="path-effect20"
       is_visible="true"
       lpeversion="1.3"
       weight="33.333333"
       steps="2"
       helper_size="0"
       apply_no_weight="true"
       apply_with_weight="true"
       only_selected="false"
       uniform="false" />
    <inkscape:path-effect
       effect="bspline"
       id="path-effect19"
       is_visible="true"
       lpeversion="1.3"
       weight="33.333333"
       steps="2"
       helper_size="0"
       apply_no_weight="true"
       apply_with_weight="true"
       only_selected="false"
       uniform="false" />
    <inkscape:path-effect
       effect="bspline"
       id="path-effect44"
       is_visible="true"
       lpeversion="1.3"
       weight="33.333333"
       steps="2"
       helper_size="0"
       apply_no_weight="true"
       apply_with_weight="true"
       only_selected="false"
       uniform="false" />
    <inkscape:path-effect
       effect="bspline"
       id="path-effect42"
       is_visible="true"
       lpeversion="1.3"
       weight="33.333333"
       steps="2"
       helper_size="0"
       apply_no_weight="true"
       apply_with_weight="true"
       only_selected="false"
       uniform="false" />
    <inkscape:path-effect
       effect="bspline"
       id="path-effect40"
       is_visible="true"
       lpeversion="1.3"
       weight="33.333333"
       steps="2"
       helper_size="0"
       apply_no_weight="true"
       apply_with_weight="true"
       only_selected="false"
       uniform="false" />
    <inkscape:path-effect
       effect="bspline"
       id="path-effect38"
       is_visible="true"
       lpeversion="1.3"
       weight="33.333333"
       steps="2"
       helper_size="0"
       apply_no_weight="true"
       apply_with_weight="true"
       only_selected="false"
       uniform="false" />
    <linearGradient
       id="swatch32"
       inkscape:swatch="solid">
      <stop
         style="stop-color:#ff0909;stop-opacity:1;"
         offset="0"
         id="stop32" />
    </linearGradient>
    <inkscape:path-effect
       effect="bspline"
       id="path-effect24"
       is_visible="true"
       lpeversion="1.3"
       weight="33.333333"
       steps="2"
       helper_size="0"
       apply_no_weight="true"
       apply_with_weight="true"
       only_selected="false"
       uniform="false" />
    <inkscape:path-effect
       effect="bspline"
       id="path-effect23"
       is_visible="true"
       lpeversion="1.3"
       weight="33.333333"
       steps="2"
       helper_size="0"
       apply_no_weight="true"
       apply_with_weight="true"
       only_selected="false"
       uniform="false" />
    <inkscape:perspective
       sodipodi:type="inkscape:persp3d"
       inkscape:vp_x="0 : 50 : 1"
       inkscape:vp_y="0 : 1000 : 0"
       inkscape:vp_z="100 : 50 : 1"
       inkscape:persp3d-origin="50 : 33.333333 : 1"
       id="perspective10" />
  </defs>
  <g
     inkscape:groupmode="layer"
     id="layer5"
     inkscape:label="地面"
     style="display:inline">
    <ellipse
       style="fill:#000000;fill-opacity:0.199588;stroke:none;stroke-width:1.30197"
       id="path1"
       cx="50.169777"
       cy="73.463669"
       rx="46.774193"
       ry="21.103394" />
  </g>
  <g
     inkscape:groupmode="layer"
     id="layer6"
     inkscape:label="色"
     style="display:inline;fill:#333333">
    <path
       style="fill:#333333;fill-opacity:1;stroke:#333333;stroke-width:7.55905522;stroke-dasharray:none;stroke-opacity:1"
       d="M 160.10053,337.41866 C 88.332585,334.82748 30.267018,307.26302 22.436863,272.06798 c -0.847039,-3.80729 -0.979445,-8.49409 -0.807487,-28.58278 0.225278,-26.31768 0.108565,-25.42063 4.474238,-34.38874 3.974013,-8.16354 13.294175,-17.91307 23.947856,-25.05109 42.389257,-28.40102 116.71332,-38.01388 181.91784,-23.52871 4.05866,0.90163 7.64378,1.80097 7.96694,1.99853 0.32316,0.19757 -4.19,2.75132 -10.02926,5.67499 l -10.61683,5.31578 -9.54214,-1.22627 c -55.53266,-7.13654 -116.884821,1.63717 -146.309603,20.92312 -5.736442,3.75985 -12.162884,10.46161 -14.198479,14.80676 -1.509637,3.22245 -1.753488,4.55466 -1.742898,9.52182 0.01085,5.08824 0.229611,6.19084 1.839195,9.26982 11.695975,22.37329 61.122555,37.89406 120.675335,37.89406 26.88168,0 50.69656,-2.86287 71.70015,-8.61931 20.63145,-5.65445 35.018,-12.926 43.62497,-22.04984 5.54328,-5.87617 7.13848,-9.2955 7.46577,-16.00293 0.23412,-4.79789 0.0844,-5.65403 -1.62989,-9.31727 -4.32313,-9.23833 -15.5707,-17.84079 -32.21932,-24.64228 -1.44697,-0.59114 -1.03028,-0.90017 5.27548,-3.91236 11.18139,-5.34124 10.44455,-5.22888 15.60069,-2.37895 16.8597,9.31877 28.89953,20.50336 34.55409,32.09957 3.94452,8.08932 4.19327,10.17957 4.20386,35.3248 0.005,12.39251 -0.27534,24.03372 -0.62347,25.86937 -0.79366,4.18498 -3.08408,9.89929 -5.8772,14.66288 -2.98248,5.08655 -15.09172,17.03919 -21.73492,21.45383 -21.39502,14.21776 -50.55421,23.93955 -84.30765,28.10852 -10.05863,1.24238 -32.44035,2.6586 -38.24337,2.4199 -1.58817,-0.0653 -5.05327,-0.19698 -7.70023,-0.29254 z m 43.95546,-8.25064 c 37.65585,-2.47121 61.66751,-10.37901 85.56877,-28.18049 7.74636,-5.76943 13.055,-10.67037 17.67557,-16.31808 l 3.5963,-4.39575 v -9.37864 -9.37863 l -1.6874,-1.10563 c -1.65737,-1.08595 -1.71567,-1.07194 -3.27637,0.78732 -8.4044,10.01213 -13.74326,14.75293 -25.51629,22.65798 -11.96612,8.03469 -25.11532,13.88852 -39.14282,17.42578 -11.91769,3.00524 -15.75826,3.5292 -45.07841,6.14999 l -4.01053,0.35848 v 9.17315 c 0,5.04524 0.18286,10.08745 0.40635,11.20492 0.39157,1.95785 0.50244,2.01989 3.04801,1.70518 1.45291,-0.17962 5.24048,-0.49713 8.41682,-0.70558 z m -81.17322,-49.2779 v -9.1892 l -10.15622,-1.10196 c -30.92164,-3.35501 -44.325232,-9.27441 -65.451715,-28.90529 -3.644712,-3.38669 -6.802444,-6.15762 -7.017184,-6.15762 -0.214739,0 -1.058752,0.62785 -1.875585,1.39523 -1.375077,1.29182 -1.485149,1.91022 -1.485149,8.34375 v 6.94852 l 4.65222,4.40034 c 19.627262,18.56461 31.989191,25.6234 51.859335,29.61225 6.223374,1.24932 23.520748,3.60415 27.709668,3.77233 l 1.76463,0.0709 z"
       id="path4"
       transform="scale(0.26458333)" />
    <path
       style="fill:#333333;fill-opacity:1;stroke:#333333;stroke-width:7.55905522;stroke-dasharray:none;stroke-opacity:1"
       d="m 64.489394,236.55434 c -5.499491,-4.08191 -10.042641,-9.04853 -11.697252,-12.78755 -8.122381,-18.3546 20.546747,-37.55363 68.165578,-45.64885 17.05205,-2.89886 25.71854,-3.52988 48.7681,-3.55089 21.16213,-0.0193 26.30435,0.26981 41.54913,2.33598 l 5.29391,0.71749 v 19.15333 c 0,10.53433 -0.11259,19.15332 -0.25021,19.15332 -0.13761,0 -2.95301,-0.55407 -6.25643,-1.23128 -12.83673,-2.63155 -23.24358,-3.53219 -40.97809,-3.54636 -17.29632,-0.0138 -24.76577,0.55307 -38.35594,2.91102 -23.23495,4.03135 -45.343481,12.78557 -57.693143,22.8445 -1.866721,1.52047 -3.614687,2.76013 -3.884368,2.7548 -0.269682,-0.005 -2.36726,-1.4028 -4.661285,-3.10551 z"
       id="path5"
       transform="scale(0.26458333)" />
    <path
       style="display:inline;fill:#333333;fill-opacity:1;stroke:#333333;stroke-width:7.55906;stroke-dasharray:none;stroke-opacity:1"
       d="m 266.89212,238.97365 c -1.39887,-1.54574 -8.85205,-6.84808 -11.00441,-7.82876 l -1.45941,-0.66495 v -21.66935 -21.66936 l 3.99655,1.62395 c 14.22776,5.78125 24.94953,13.89946 28.76411,21.77934 1.93642,4.0001 1.98113,9.14315 0.11543,13.27661 -1.75581,3.89 -8.09021,10.52599 -13.26736,13.89903 -4.53844,2.95691 -5.45743,3.11814 -7.14491,1.25349 z"
       id="path6"
       transform="scale(0.26458333)" />
    <path
       style="display:inline;fill:#1a1a1a;fill-opacity:1;stroke:#1a1a1a;stroke-width:7.55905522;stroke-dasharray:none;stroke-opacity:1"
       d="m 245.12386,225.52342 c -4.98159,-2.41301 -21.84218,-8.31288 -23.75648,-8.31288 -0.81595,0 -0.94841,-2.72395 -0.94841,-19.5042 v -19.50421 l 8.50233,1.83338 c 9.39057,2.02491 11.74318,2.63014 17.64636,4.53973 l 4.01053,1.29735 v 21.1233 c 0,11.61782 -0.0722,21.09874 -0.16042,21.06871 -0.0882,-0.03 -2.47049,-1.17355 -5.29391,-2.54118 z"
       id="path7"
       transform="scale(0.26458333)" />
    <path
       style="fill:#1a1a1a;fill-opacity:1;stroke:#1a1a1a;stroke-width:7.55905522;stroke-dasharray:none;stroke-opacity:1"
       d="m 239.02785,177.47169 -11.87118,-3.04292 9.87289,-4.9659 c 7.69578,-3.87085 10.24279,-4.8742 11.55034,-4.55003 2.78617,0.69074 19.96696,7.54589 19.94574,7.95836 -0.0278,0.5394 -15.82441,7.77641 -16.81453,7.70334 -0.44664,-0.033 -6.15411,-1.42925 -12.68326,-3.10285 z"
       id="path8"
       transform="scale(0.26458333)" />
    <path
       style="fill:#4d4d4d;fill-opacity:1;stroke:#4d4d4d;stroke-width:7.55905522;stroke-dasharray:none;stroke-opacity:1"
       d="m 280.41143,172.9527 c -0.74867,-0.57562 -2.99469,-1.7226 -4.99114,-2.54883 -1.99646,-0.82624 -6.69267,-2.7597 -10.43603,-4.29657 l -6.8061,-2.79433 4.76427,-1.98304 c 19.63336,-8.17204 34.70844,-16.14863 42.83477,-22.6649 0.97422,-0.78119 1.86764,-1.324 1.9854,-1.20624 0.46499,0.46498 -7.81743,23.99124 -9.04054,25.67969 -0.6921,0.95542 -2.45901,2.55247 -3.92646,3.54899 -2.38165,1.61735 -12.4137,7.32957 -12.85018,7.31686 -0.095,-0.003 -0.78532,-0.476 -1.53399,-1.05163 z"
       id="path21"
       transform="scale(0.26458333)" />
    <path
       style="fill:#4d4d4d;fill-opacity:1;stroke:#4d4d4d;stroke-width:1.71492;stroke-dasharray:none;stroke-opacity:1"
       d="m 305.13489,131.69809 c -0.0105,-1.99057 -2.7207,-12.73923 -4.69863,-18.63472 -2.86231,-8.53151 -5.86515,-15.342949 -14.00311,-31.763716 l -7.15607,-14.439522 v -3.406345 -3.406345 l 2.26961,2.483319 c 17.1607,18.776543 28.50323,35.015963 31.70968,45.399659 1.66024,5.3765 1.73014,8.62225 0.28081,13.03929 -1.51079,4.60434 -2.46019,6.25644 -5.3829,9.36715 -2.47412,2.63327 -3.01141,2.87549 -3.01939,1.36123 z"
       id="path24"
       transform="scale(0.26458333)" />
    <path
       style="fill:#ffffff;fill-opacity:1;stroke:#ffffff;stroke-width:3.42985;stroke-dasharray:none;stroke-opacity:1"
       d="m 196.69637,318.62708 v -6.9488 l 9.86884,-0.7964 c 34.30687,-2.76851 54.4316,-8.87351 75.8788,-23.01848 8.47275,-5.58799 12.65037,-8.9161 18.9529,-15.0989 l 5.10458,-5.0076 v 5.44494 5.44493 l -2.57509,3.15103 c -9.31398,11.39713 -27.33358,24.29694 -43.70641,31.28841 -15.35717,6.55776 -33.93209,10.39531 -57.17126,11.8115 -2.37079,0.14448 -4.76995,0.35616 -5.33145,0.47042 l -1.02091,0.20773 z"
       id="path27"
       transform="scale(0.26458333)" />
    <path
       style="fill:#ffffff;fill-opacity:1;stroke:#ffffff;stroke-width:3.42985;stroke-dasharray:none;stroke-opacity:1"
       d="m 110.48573,283.53277 c -29.783814,-3.57031 -41.373614,-8.79804 -62.956447,-28.3973 l -6.012057,-5.45952 v -4.0517 -4.0517 l 4.701083,4.24492 c 20.345292,18.3711 33.631315,24.29376 61.816271,27.55652 4.71715,0.54607 9.03606,1.08064 9.59756,1.18792 0.98138,0.1875 1.02092,0.37921 1.02092,4.95068 v 4.75563 l -1.47466,-0.055 c -0.81106,-0.0302 -3.82276,-0.33645 -6.69267,-0.68048 z"
       id="path28"
       transform="scale(0.26458333)" />
  </g>
  <g
     inkscape:groupmode="layer"
     id="layer7"
     inkscape:label="影"
     style="fill:none;stroke:#333333">
    <g
       id="g38"
       style="fill:#1a1a1a;stroke:#1a1a1a">
      <path
         style="fill:none;fill-opacity:1;stroke:#1a1a1a;stroke-width:1;stroke-dasharray:none;stroke-opacity:1"
         d="m 5.4023439,62.787241 c 0.7203128,3.001303 1.4406252,6.002604 2.9012812,8.663782 1.460656,2.661177 3.6615659,4.982137 7.0630879,7.643322 3.401523,2.661186 8.003426,5.662428 12.56545,7.483224 4.562025,1.820797 9.083897,2.461062 13.605859,3.101339"
         id="path29"
         inkscape:path-effect="#path-effect29"
         inkscape:original-d="m 5.4023439,62.787241 c 0.7203125,3.001303 1.440625,6.002604 2.1609375,9.003905 2.2009989,2.321055 4.4019096,4.642014 6.6028646,6.963021 4.602089,3.001365 9.203993,6.002605 13.80599,9.003909 4.522052,0.640289 9.043924,1.280554 13.565886,1.920832"
         transform="matrix(1.0001242,0,0,0.98455811,-0.34244837,1.5416248)" />
      <path
         style="fill:#1a1a1a;stroke:#1a1a1a;fill-opacity:1;stroke-width:3.77952761;stroke-dasharray:none;stroke-opacity:1"
         d="m 106.62894,330.68298 c -0.49911,-0.11837 -4.17516,-1.10699 -8.168992,-2.19695 -38.526465,-10.51421 -65.797089,-28.87 -74.248535,-49.97648 -2.228394,-5.56515 -2.644076,-8.48872 -2.632724,-18.51643 l 0.01027,-9.0748 1.975958,5.89862 c 4.527219,13.51464 9.936565,22.2679 19.791868,32.0267 15.409494,15.25859 41.252101,32.2058 61.457195,40.30274 3.96392,1.58849 4.71495,2.22434 1.81496,1.5366 z"
         id="path30"
         transform="scale(0.26458333)" />
    </g>
    <g
       id="g37">
      <path
         style="fill:none;fill-opacity:1;stroke:#1a1a1a;stroke-width:0.499999;stroke-dasharray:none;stroke-opacity:1"
         d="m 27.01172,47.540626 c -2.841233,1.120486 -5.682467,2.240972 -6.672887,4.66206 -0.990421,2.421088 -0.130066,6.142627 0.910398,7.633267 1.040464,1.49064 2.26097,0.750334 3.481499,0.01001"
         id="path35"
         inkscape:path-effect="#path-effect35"
         inkscape:original-d="m 27.01172,47.540626 c -2.841233,1.120487 -5.682466,2.240974 -8.523699,3.361458 0.860391,3.72169 1.720747,7.443229 2.58112,11.164845 1.220554,-0.740336 2.441059,-1.480643 3.661589,-2.220963" />
      <path
         style="fill:#1a1a1a;stroke:#1a1a1a;fill-opacity:1;stroke-width:3.77952761;stroke-dasharray:none;stroke-opacity:1"
         d="m 68.473549,239.59404 c -2.085761,-1.19268 -5.794176,-3.86317 -8.031421,-5.78355 -8.907229,-7.64569 -11.472756,-15.878 -7.465573,-23.95566 3.121498,-6.2923 10.357511,-12.46143 20.869658,-17.79261 3.073632,-1.55878 8.227689,-3.87348 8.624927,-3.87348 0.1168,0 -0.657204,0.83482 -1.720009,1.85515 -4.110405,3.94615 -6.008697,8.18856 -6.422372,14.35307 -0.687629,10.2469 3.243839,22.57049 8.006452,25.09705 0.571749,0.30331 1.039192,0.6027 1.038761,0.6653 -4.31e-4,0.0626 -1.148961,0.80819 -2.552288,1.65685 -3.254146,1.96794 -6.225676,4.08502 -9.058015,6.4534 -1.231574,1.02984 -2.262219,1.8712 -2.290324,1.86969 -0.0281,-0.001 -0.478012,-0.24685 -0.999796,-0.54521 z"
         id="path36"
         transform="scale(0.26458333)" />
    </g>
  </g>
  <g
     inkscape:label="Layer 1"
     inkscape:groupmode="layer"
     id="layer1"
     style="display:inline">
    <path
       id="ellipse2"
       style="fill:#ffffff;fill-opacity:0;stroke:#000000;stroke-width:1;stroke-dasharray:none"
       d="m 44.999837,40.097294 a 39.902618,19.902618 0 0 0 -39.9024737,19.902661 39.902618,19.902618 0 0 0 0.013436,0.102836 h -0.00775 v 9.794235 h 0.00775 a 39.902618,19.902618 0 0 0 -0.013436,0.102836 39.902618,19.902618 0 0 0 39.9024737,19.902661 39.902618,19.902618 0 0 0 39.902991,-19.902661 39.902618,19.902618 0 0 0 -0.0057,-0.125057 v -9.772014 h -0.0078 a 39.902618,19.902618 0 0 0 0.01344,-0.102836 39.902618,19.902618 0 0 0 -39.902991,-19.902661 z" />
  </g>
  <g
     inkscape:groupmode="layer"
     id="layer2"
     inkscape:label="Layer 2"
     style="display:inline">
    <path
       id="ellipse9"
       style="fill:#ffffff;fill-opacity:0;stroke:#000000;stroke-width:0.984034;stroke-dasharray:none;stroke-opacity:1"
       d="M 71.080416,64.446195 A 29.481443,14.481445 0 0 0 44.616915,56.339197 29.481443,14.481445 0 0 0 18.462956,64.200216 32.00798,12.007983 0 0 0 44.999837,69.507902 32.00798,12.007983 0 0 0 71.080416,64.446195 Z" />
    <path
       id="path10"
       style="fill:#ffffff;fill-opacity:0;stroke:#000000;stroke-width:0.984034;stroke-dasharray:none;stroke-opacity:1"
       d="m 44.999837,45.491797 a 32.00798,12.007983 0 0 0 -32.007865,12.008052 32.00798,12.007983 0 0 0 5.470984,6.700367 29.481443,14.481445 0 0 1 26.153959,-7.861019 29.481443,14.481445 0 0 1 26.463501,8.106998 32.00798,12.007983 0 0 0 5.927803,-6.946346 32.00798,12.007983 0 0 0 -32.008382,-12.008052 z" />
  </g>
  <g
     inkscape:groupmode="layer"
     id="layer3"
     inkscape:label="Layer 3"
     style="display:inline">
    <g
       sodipodi:type="inkscape:box3d"
       id="g10"
       style="fill:#ffffff;fill-opacity:0;stroke:#000000;stroke-width:3.77953;stroke-dasharray:none;stroke-opacity:1"
       inkscape:perspectiveID="#perspective10"
       inkscape:corner0="1.6697814 : 0.093104454 : 0 : 1"
       inkscape:corner7="0.81871571 : 0.047558783 : 0.25 : 1">
      <path
         sodipodi:type="inkscape:box3dside"
         id="path16"
         style="fill:#e9e9ff;fill-rule:evenodd;stroke:none;stroke-linejoin:round"
         inkscape:box3dsidetype="11"
         d="M 25.686855,23.820715 36.254378,13.050608 v 22.016399 l -10.567523,4.352709 z"
         points="36.254378,13.050608 36.254378,35.067007 25.686855,39.419716 25.686855,23.820715 " />
      <path
         sodipodi:type="inkscape:box3dside"
         id="path11"
         style="fill:#353564;fill-rule:evenodd;stroke:none;stroke-linejoin:round"
         inkscape:box3dsidetype="6"
         d="m 18.728125,21.369271 v 17.0597 l 6.95873,0.990745 V 23.820715 Z"
         points="18.728125,38.428971 25.686855,39.419716 25.686855,23.820715 18.728125,21.369271 " />
      <path
         sodipodi:type="inkscape:box3dside"
         id="path12"
         style="fill:#4d4d9f;fill-rule:evenodd;stroke:none;stroke-linejoin:round"
         inkscape:box3dsidetype="5"
         d="M 18.728125,21.369271 27.491927,7.9715577 36.254378,13.050608 25.686855,23.820715 Z"
         points="27.491927,7.9715577 36.254378,13.050608 25.686855,23.820715 18.728125,21.369271 " />
      <path
         sodipodi:type="inkscape:box3dside"
         id="path15"
         style="fill:#afafde;fill-rule:evenodd;stroke:none;stroke-linejoin:round"
         inkscape:box3dsidetype="13"
         d="m 18.728125,38.428971 8.763802,-5.414648 8.762451,2.052684 -10.567523,4.352709 z"
         points="27.491927,33.014323 36.254378,35.067007 25.686855,39.419716 18.728125,38.428971 " />
      <path
         sodipodi:type="inkscape:box3dside"
         id="path14"
         style="fill:#d7d7ff;fill-rule:evenodd;stroke:none;stroke-linejoin:round"
         inkscape:box3dsidetype="14"
         d="M 27.491927,7.9715577 V 33.014323 l 8.762451,2.052684 V 13.050608 Z"
         points="27.491927,33.014323 36.254378,35.067007 36.254378,13.050608 27.491927,7.9715577 " />
      <path
         sodipodi:type="inkscape:box3dside"
         id="path13"
         style="fill:#8686bf;fill-rule:evenodd;stroke:none;stroke-linejoin:round"
         inkscape:box3dsidetype="3"
         d="M 18.728125,21.369271 27.491927,7.9715577 V 33.014323 l -8.763802,5.414648 z"
         points="27.491927,7.9715577 27.491927,33.014323 18.728125,38.428971 18.728125,21.369271 " />
    </g>
    <path
       style="fill:#ffffff;fill-opacity:0;stroke:#000000;stroke-width:1;stroke-dasharray:none;stroke-opacity:1"
       d="m 57.809846,46.434634 v 11.460101 l 8.998302,3.480477 V 48.471986 l -8.404074,-2.122241 7.13073,-3.565366 7.215618,2.886249 -5.772493,2.716469"
       id="path22" />
    <g
       id="g27"
       style="fill:none;fill-opacity:1;stroke:#000000">
      <path
         style="fill:none;fill-opacity:1;stroke:#000000;stroke-width:1;stroke-dasharray:none;stroke-opacity:1"
         d="M 67.109114,43.098698 C 74.872484,39.857291 82.635851,36.615885 83.676246,31.833748 84.71664,27.051611 79.034287,20.728993 73.351823,14.40625"
         id="path23" />
      <path
         style="fill:none;fill-opacity:1;stroke:#000000;stroke-width:0.981698;stroke-dasharray:none;stroke-opacity:1"
         d="M 83.830871,31.08324 80.145986,42.215902"
         id="path25" />
      <path
         style="fill:none;fill-opacity:1;stroke:#000000;stroke-width:0.957444;stroke-dasharray:none;stroke-opacity:1"
         d="m 73.437288,14.796161 -0.178212,3.539265"
         id="path26" />
    </g>
    <path
       style="fill:none;fill-opacity:1;stroke:#000000;stroke-width:1;stroke-dasharray:none;stroke-opacity:1"
       d="m 76.653257,47.720704 c 1.340582,-1.260547 2.681162,-2.521093 3.341449,-3.501526 0.660287,-0.980433 0.640277,-1.680722 0.620267,-2.381026"
       id="path19"
       inkscape:path-effect="#path-effect19"
       inkscape:original-d="m 76.653257,47.720704 c 1.340583,-1.260546 2.681163,-2.521092 4.021746,-3.781641 -0.02,-0.700318 -0.04002,-1.400607 -0.06003,-2.100911"
       transform="rotate(16,79.627111,40.286277)" />
    <path
       style="fill:none;fill-opacity:1;stroke:#000000;stroke-width:1;stroke-dasharray:none;stroke-opacity:1"
       d="m 80.434899,36.255729 c -0.400174,-2.24097 -0.800348,-4.481943 -1.960871,-7.463274 -1.160523,-2.981331 -3.081317,-6.702871 -5.00215,-10.424486"
       id="path20"
       inkscape:path-effect="#path-effect20"
       inkscape:original-d="M 80.434899,36.255729 C 80.034724,34.014759 79.63455,31.773786 79.234376,29.532812 77.313506,25.811124 75.39271,22.089584 73.471878,18.367969"
       transform="matrix(1.0226661,0,0,1.0264343,-1.8348178,-0.96020514)" />
  </g>
  <g
     inkscape:groupmode="layer"
     id="layer4"
     inkscape:label="ハイライト"
     style="display:inline">
    <g
       id="g42"
       style="stroke:#333333;stroke-opacity:1">
      <path
         style="fill:none;fill-opacity:1;stroke:#333333;stroke-width:1;stroke-dasharray:none;stroke-opacity:1"
         d="m 10.314092,62.478776 c 2.971137,2.815507 5.942275,5.631015 9.627944,7.250996 3.685669,1.619982 8.085694,2.044422 12.485808,2.46887"
         id="path38"
         inkscape:path-effect="#path-effect38"
         inkscape:original-d="m 10.314092,62.478776 c 2.971137,2.815508 5.942275,5.631014 8.913412,8.446522 4.400201,0.424455 8.800226,0.848894 13.20034,1.273344" />
      <path
         style="fill:none;fill-opacity:1;stroke:#333333;stroke-width:1;stroke-dasharray:none;stroke-opacity:1"
         d="m 10.314092,62.478776 c 2.971137,2.815507 5.942275,5.631015 9.627944,7.250996 3.685669,1.619982 8.085694,2.044422 12.485808,2.46887"
         id="path39"
         inkscape:path-effect="#path-effect40"
         inkscape:original-d="m 10.314092,62.478776 c 2.971137,2.815508 5.942275,5.631014 8.913412,8.446522 4.400201,0.424455 8.800226,0.848894 13.20034,1.273344"
         transform="translate(0,3.7041669)" />
      <path
         style="fill:none;fill-opacity:1;stroke:#333333;stroke-width:0.979179;stroke-dasharray:none;stroke-opacity:1"
         d="M 10.4,62.859168 V 66.56248"
         id="path40" />
      <path
         style="fill:none;fill-opacity:1;stroke:#333333;stroke-width:1;stroke-dasharray:none;stroke-opacity:1"
         d="m 31.92,72.241086 v 3.650255"
         id="path41" />
    </g>
    <g
       id="g18"
       style="stroke:#333333">
      <path
         style="fill:none;fill-opacity:1;stroke:#333333;stroke-width:1.01968;stroke-dasharray:none;stroke-opacity:1"
         d="m 81.635416,69.330078 v 4.712044"
         id="path45" />
      <path
         style="display:inline;fill:none;fill-opacity:1;stroke:#333333;stroke-width:1;stroke-dasharray:none;stroke-opacity:1"
         d="m 51.022136,86.197397 c 3.601561,-0.240104 7.203125,-0.480209 10.584623,-1.120497 3.381498,-0.640289 6.542808,-1.68072 9.444093,-3.161381 2.901285,-1.480662 5.542376,-3.401456 7.28314,-4.922127 1.740764,-1.520672 2.581111,-2.641134 3.421476,-3.761621"
         id="path42"
         inkscape:path-effect="#path-effect42"
         inkscape:original-d="m 51.022136,86.197397 c 3.601561,-0.240104 7.203125,-0.480209 10.804686,-0.720313 3.161435,-1.040474 6.322745,-2.080903 9.484116,-3.121355 2.641198,-1.920873 5.28229,-3.841666 7.923438,-5.762501 0.84038,-1.120508 1.680728,-2.24097 2.521092,-3.361457"
         transform="translate(0,0.52916664)" />
      <path
         style="display:inline;fill:none;fill-opacity:1;stroke:#333333;stroke-width:1;stroke-dasharray:none;stroke-opacity:1"
         d="m 51.022136,86.197397 c 3.601561,-0.240104 7.203125,-0.480209 10.584623,-1.120497 3.381498,-0.640289 6.542808,-1.68072 9.444093,-3.161381 2.901285,-1.480662 5.542376,-3.401456 7.28314,-4.922127 1.740764,-1.520672 2.581111,-2.641134 3.421476,-3.761621"
         id="path43"
         inkscape:path-effect="#path-effect44"
         inkscape:original-d="m 51.022136,86.197397 c 3.601561,-0.240104 7.203125,-0.480209 10.804686,-0.720313 3.161435,-1.040474 6.322745,-2.080903 9.484116,-3.121355 2.641198,-1.920873 5.28229,-3.841666 7.923438,-5.762501 0.84038,-1.120508 1.680728,-2.24097 2.521092,-3.361457"
         transform="translate(0,-4.2333336)" />
      <path
         style="display:inline;fill:none;fill-opacity:1;stroke:#333333;stroke-width:1;stroke-dasharray:none;stroke-opacity:1"
         d="m 51.5,81.935546 v 4.682033"
         id="path44" />
    </g>
    <path
       style="fill:none;fill-opacity:1;stroke:#ffffff;stroke-width:1;stroke-dasharray:none;stroke-opacity:1"
       d="m 50.169779,82.3854 v 3.735144"
       id="path37" />
  </g>
</svg>
