<svg viewBox="0 0 96 96" xmlns="http://www.w3.org/2000/svg" xmlns:xlink="http://www.w3.org/1999/xlink" id="Icons_Needle" overflow="hidden"><path d="M67.8 35 64.4 31.6 61.6 34.4 65 37.8 61.8 41 58.4 37.6 55.6 40.4 59 43.8 55.8 47 52.4 43.6 49.6 46.4 53 49.8 49.9 52.9 43.1 46.1 64 25.2 70.8 32 67.8 35ZM87.1 20.9 75.1 8.9C73.9 7.7 72 7.7 70.9 8.9 69.7 10.1 69.7 12 70.9 13.1L73.4 15.6 68.1 20.9 64 16.8 62.1 14.9C60.9 13.7 59 13.7 57.9 14.9 56.7 16.1 56.7 18 57.9 19.1L59.8 21 33.4 47.4C31.4 49.4 30.2 52.1 30.2 55 30.2 56.1 30.4 57.2 30.7 58.3L25.5 63.5C24.1 64.9 23.7 67 24.4 68.8L8.6 84.6C7.8 85.4 7.8 86.6 8.6 87.4 9 87.8 9.5 88 10 88 10.5 88 11 87.8 11.4 87.4L27.2 71.6C29 72.3 31.1 71.9 32.5 70.5L37.7 65.3C38.8 65.6 39.9 65.8 41 65.8 43.8 65.8 46.5 64.8 48.6 62.6L75 36.2 76.9 38.1C77.5 38.7 78.3 39 79 39 79.7 39 80.5 38.7 81.1 38.1 82.3 36.9 82.3 35 81.1 33.9L79.2 32 75.1 27.9 80.4 22.6 82.9 25.1C83.5 25.7 84.3 26 85 26 85.7 26 86.5 25.7 87.1 25.1 88.3 23.9 88.3 22.1 87.1 20.9Z" stroke="#000000" stroke-width="0.999969" stroke-linecap="butt" stroke-opacity="1" fill="#00B0F0" fill-opacity="1"/></svg>