<?xml version="1.0" encoding="UTF-8"?>
<svg xmlns="http://www.w3.org/2000/svg" xmlns:xlink="http://www.w3.org/1999/xlink" width="25pt" height="25pt" viewBox="0 0 25 25" version="1.1">
<g id="surface1">
<path style="fill:none;stroke-width:13;stroke-linecap:butt;stroke-linejoin:miter;stroke:rgb(12.941176%,12.941176%,12.941176%);stroke-opacity:1;stroke-miterlimit:8;" d="M 1021.514219 401.335156 C 1021.514219 396.450469 1025.447344 392.485625 1030.332031 392.485625 L 1083.682969 392.485625 C 1088.535937 392.485625 1092.500781 396.450469 1092.500781 401.335156 L 1092.500781 436.669844 C 1092.500781 441.554531 1088.535937 445.487656 1083.682969 445.487656 L 1030.332031 445.487656 C 1025.447344 445.487656 1021.514219 441.554531 1021.514219 436.669844 Z M 1021.514219 401.335156 " transform="matrix(0.123153,0,0,0.123153,-117.610837,-47.413793)"/>
<path style="fill-rule:evenodd;fill:rgb(0.784314%,53.333333%,81.960784%);fill-opacity:1;stroke-width:13;stroke-linecap:butt;stroke-linejoin:miter;stroke:rgb(12.941176%,12.941176%,12.941176%);stroke-opacity:1;stroke-miterlimit:8;" d="M 962.485625 453.163594 C 962.485625 438.985312 973.999531 427.503125 988.177812 427.503125 L 1125.837187 427.503125 C 1140.015469 427.503125 1151.497656 438.985312 1151.497656 453.163594 L 1151.497656 555.837188 C 1151.497656 570.015469 1140.015469 581.497656 1125.837187 581.497656 L 988.177812 581.497656 C 973.999531 581.497656 962.485625 570.015469 962.485625 555.837188 Z M 962.485625 453.163594 " transform="matrix(0.123153,0,0,0.123153,-117.610837,-47.413793)"/>
<path style="fill:none;stroke-width:11;stroke-linecap:butt;stroke-linejoin:miter;stroke:rgb(12.941176%,12.941176%,12.941176%);stroke-opacity:1;stroke-miterlimit:8;" d="M 962.485625 475.493594 L 1151.465937 475.493594 " transform="matrix(0.123153,0,0,0.123153,-117.610837,-47.413793)"/>
<path style="fill-rule:evenodd;fill:rgb(12.941176%,12.941176%,12.941176%);fill-opacity:1;stroke-width:1;stroke-linecap:butt;stroke-linejoin:miter;stroke:rgb(12.941176%,12.941176%,12.941176%);stroke-opacity:1;stroke-miterlimit:8;" d="M 1024.495781 519.170313 L 1048.157969 519.170313 L 1048.157969 495.508125 L 1068.838594 495.508125 L 1068.838594 519.170313 L 1092.500781 519.170313 L 1092.500781 539.850937 L 1068.838594 539.850937 L 1068.838594 563.513125 L 1048.157969 563.513125 L 1048.157969 539.850937 L 1024.495781 539.850937 Z M 1024.495781 519.170313 " transform="matrix(0.123153,0,0,0.123153,-117.610837,-47.413793)"/>
</g>
</svg>
