<svg width="203" height="203" xmlns="http://www.w3.org/2000/svg" xmlns:xlink="http://www.w3.org/1999/xlink" overflow="hidden"><defs><clipPath id="clip0"><path d="M955 385 1158 385 1158 588 955 588Z" fill-rule="evenodd" clip-rule="evenodd"/></clipPath></defs><g clip-path="url(#clip0)" transform="translate(-955 -385)"><path d="M1021.5 401.334C1021.5 396.455 1025.45 392.5 1030.33 392.5L1083.67 392.5C1088.55 392.5 1092.5 396.455 1092.5 401.334L1092.5 436.667C1092.5 441.545 1088.55 445.5 1083.67 445.5L1030.33 445.5C1025.45 445.5 1021.5 441.545 1021.5 436.667Z" stroke="#212121" stroke-width="13" stroke-miterlimit="8" fill="none" fill-rule="evenodd"/><path d="M962.5 453.167C962.5 438.992 973.992 427.5 988.167 427.5L1125.83 427.5C1140.01 427.5 1151.5 438.992 1151.5 453.167L1151.5 555.833C1151.5 570.008 1140.01 581.5 1125.83 581.5L988.167 581.5C973.992 581.5 962.5 570.008 962.5 555.833Z" stroke="#212121" stroke-width="13" stroke-miterlimit="8" fill="#0288D1" fill-rule="evenodd"/><path d="M962.5 475.5 1151.48 475.5" stroke="#212121" stroke-width="11" stroke-miterlimit="8" fill="none" fill-rule="evenodd"/><path d="M1024.5 519.163 1048.16 519.163 1048.16 495.5 1068.84 495.5 1068.84 519.163 1092.5 519.163 1092.5 539.837 1068.84 539.837 1068.84 563.5 1048.16 563.5 1048.16 539.837 1024.5 539.837Z" stroke="#212121" stroke-miterlimit="8" fill="#212121" fill-rule="evenodd"/></g></svg>