<svg width="47" height="67" xmlns="http://www.w3.org/2000/svg" xmlns:xlink="http://www.w3.org/1999/xlink" overflow="hidden"><defs><clipPath id="clip0"><path d="M417 218 464 218 464 285 417 285Z" fill-rule="evenodd" clip-rule="evenodd"/></clipPath></defs><g clip-path="url(#clip0)" transform="translate(-417 -218)"><path d="M440.5 231.814C435.17 231.814 430.849 236.123 430.849 241.439 430.849 246.754 435.17 251.063 440.5 251.063 445.83 251.063 450.151 246.754 450.151 241.439 450.151 236.123 445.83 231.814 440.5 231.814ZM440.5 219.5C452.65 219.5 462.5 230.772 462.5 241.439 462.5 252.105 444.501 283.5 440.5 283.5 436.887 283.5 418.5 252.105 418.5 241.439 418.5 230.772 428.35 219.5 440.5 219.5Z" stroke="#212121" stroke-miterlimit="8" fill="#FF9800" fill-rule="evenodd"/></g></svg>