<?xml version="1.0" encoding="UTF-8"?>
<svg xmlns="http://www.w3.org/2000/svg" xmlns:xlink="http://www.w3.org/1999/xlink" width="31pt" height="45pt" viewBox="0 0 31 45" version="1.1">
<g id="surface1">
<path style="fill-rule:evenodd;fill:rgb(100%,59.607843%,0%);fill-opacity:1;stroke-width:1;stroke-linecap:butt;stroke-linejoin:miter;stroke:rgb(12.941176%,12.941176%,12.941176%);stroke-opacity:1;stroke-miterlimit:8;" d="M 440.5 231.812934 C 435.169859 231.812934 430.846522 236.122569 430.846522 241.438368 C 430.846522 246.754167 435.169859 251.063802 440.5 251.063802 C 445.830141 251.063802 450.153478 246.754167 450.153478 241.438368 C 450.153478 236.122569 445.830141 231.812934 440.5 231.812934 Z M 440.5 219.500521 C 452.652722 219.500521 462.501638 230.771875 462.501638 241.438368 C 462.501638 252.104861 444.503528 283.499479 440.5 283.499479 C 436.887349 283.499479 418.498362 252.104861 418.498362 241.438368 C 418.498362 230.771875 428.347278 219.500521 440.5 219.500521 Z M 440.5 219.500521 " transform="matrix(0.659574,0,0,0.671642,-275.042553,-146.41791)"/>
</g>
</svg>
