<?xml version="1.0" standalone="no"?>
<!DOCTYPE svg PUBLIC "-//W3C//DTD SVG 20010904//EN"
 "http://www.w3.org/TR/2001/REC-SVG-20010904/DTD/svg10.dtd">
<svg version="1.0" xmlns="http://www.w3.org/2000/svg"
 width="1140.000000pt" height="1140.000000pt" viewBox="0 0 1140.000000 1140.000000"
 preserveAspectRatio="xMidYMid meet">
<metadata>
Created by potrace 1.11, written by Peter Selinger 2001-2013
</metadata>
<g transform="translate(0.000000,1140.000000) scale(0.100000,-0.100000)"
fill="#000000" stroke="none">
<path d="M5537 9523 c-2 -1 -16 -4 -32 -7 -17 -3 -41 -8 -55 -11 -33 -7 -68
-14 -105 -20 -16 -3 -43 -10 -60 -15 -16 -5 -41 -11 -55 -14 -14 -2 -61 -14
-105 -26 -44 -12 -93 -25 -110 -30 -66 -18 -141 -41 -160 -50 -11 -5 -31 -12
-44 -16 -13 -3 -40 -13 -60 -22 -20 -9 -38 -16 -41 -16 -24 -3 -283 -126 -363
-173 -66 -39 -199 -124 -207 -133 -3 -3 -32 -25 -65 -50 -33 -24 -75 -57 -92
-74 -18 -16 -42 -35 -53 -43 -20 -14 -20 -13 -15 49 3 35 8 101 11 148 3 47 7
105 9 130 16 211 17 268 3 266 -37 -6 -244 -119 -268 -146 -3 -3 -25 -21 -50
-40 -68 -52 -152 -132 -280 -268 -14 -15 -51 -58 -83 -97 -32 -38 -66 -79 -76
-90 -10 -11 -42 -51 -72 -90 -29 -38 -57 -74 -61 -80 -30 -37 -100 -130 -219
-295 -50 -69 -100 -136 -112 -150 -12 -14 -19 -26 -17 -27 3 -1 -4 -12 -15
-25 -11 -14 -24 -32 -30 -40 -24 -38 -372 -526 -405 -568 -10 -14 -61 -81
-111 -150 -51 -69 -96 -127 -99 -130 -3 -3 -17 -21 -30 -40 -14 -19 -32 -42
-40 -51 -8 -9 -33 -40 -55 -69 -22 -29 -46 -59 -53 -66 -8 -8 -41 -47 -74 -87
-98 -117 -206 -235 -319 -347 -201 -199 -185 -188 -495 -346 -159 -81 -293
-151 -299 -155 -5 -5 -17 -9 -26 -9 -10 0 -19 -4 -21 -8 -1 -4 -48 -30 -103
-57 -55 -28 -102 -52 -105 -55 -3 -3 -89 -47 -192 -99 -166 -84 -187 -97 -190
-121 -2 -16 -1 -37 4 -49 5 -14 3 -21 -4 -21 -9 0 -9 -3 0 -12 7 -7 8 -17 2
-28 -5 -9 -5 -22 -1 -29 5 -7 5 -27 2 -44 -4 -18 -4 -53 -1 -79 4 -28 2 -48
-3 -48 -5 0 -5 -6 1 -13 6 -7 7 -18 2 -27 -4 -7 -5 -23 -1 -34 4 -12 5 -32 1
-46 -3 -13 -3 -46 0 -72 4 -30 3 -48 -4 -48 -6 0 -5 -5 2 -12 7 -7 8 -17 2
-28 -5 -9 -5 -22 -1 -29 5 -7 5 -27 2 -44 -4 -18 -4 -53 -1 -79 4 -28 2 -48
-3 -48 -5 0 -5 -6 1 -13 6 -7 7 -18 2 -27 -4 -7 -5 -23 -1 -34 4 -12 5 -32 1
-46 -3 -13 -3 -46 0 -72 4 -30 3 -48 -4 -48 -6 0 -5 -5 2 -12 7 -7 8 -17 2
-28 -5 -9 -5 -22 -1 -29 5 -7 5 -27 2 -44 -4 -18 -4 -53 -1 -79 4 -28 2 -48
-3 -48 -5 0 -5 -6 1 -13 6 -7 7 -18 2 -27 -4 -7 -5 -23 -1 -34 4 -12 5 -32 1
-46 -3 -13 -3 -46 0 -72 4 -27 2 -48 -2 -48 -5 0 -7 -4 -4 -9 7 -11 208 -130
216 -128 3 1 19 -8 37 -21 31 -22 104 -56 112 -52 2 1 7 -2 10 -7 5 -7 74 -42
86 -43 2 -1 31 -14 62 -29 32 -16 96 -43 143 -61 47 -17 101 -38 120 -46 82
-33 205 -72 212 -68 4 3 8 1 8 -4 0 -5 6 -9 13 -9 6 -1 50 -13 97 -27 47 -14
93 -26 103 -26 9 0 17 -4 17 -8 0 -4 14 -9 31 -10 17 -1 40 -7 50 -13 11 -5
24 -7 29 -4 5 3 11 1 14 -4 3 -4 25 -12 48 -16 24 -4 48 -9 53 -11 6 -2 24 -5
40 -9 17 -3 41 -8 55 -12 50 -13 36 -10 250 -53 85 -17 170 -33 189 -36 18 -3
43 -8 55 -10 11 -3 32 -7 46 -9 83 -15 151 -28 190 -36 25 -5 59 -11 75 -14
17 -2 57 -9 90 -16 33 -6 71 -13 85 -15 22 -3 54 -10 140 -30 14 -3 35 -7 48
-9 27 -3 35 -10 38 -33 7 -39 12 -79 18 -122 4 -25 8 -58 11 -75 17 -110 21
-138 29 -195 4 -25 9 -62 12 -83 3 -20 7 -47 9 -60 5 -38 17 -121 20 -137 1
-8 6 -40 10 -70 4 -30 9 -64 11 -75 2 -11 6 -42 9 -70 3 -27 8 -57 10 -65 2
-8 7 -40 10 -70 3 -30 8 -62 10 -70 2 -8 7 -39 10 -69 4 -30 9 -63 11 -75 2
-12 7 -48 10 -81 3 -33 11 -69 17 -80 6 -11 10 -21 9 -22 -9 -14 3 -28 23 -28
14 0 25 2 25 5 0 3 89 6 198 6 187 2 903 14 1024 18 31 1 59 4 62 6 2 3 7 39
11 80 6 75 8 102 19 235 3 39 8 93 11 120 3 28 8 73 10 100 3 28 7 79 11 115
3 36 7 85 9 110 2 25 4 45 5 45 1 0 3 29 5 65 2 36 6 84 9 108 3 23 8 73 11
110 4 37 8 90 11 117 3 28 6 58 6 68 -1 15 6 17 44 14 25 -2 47 0 50 4 2 4 17
4 33 -1 16 -4 32 -6 35 -3 3 3 141 7 308 8 1149 12 1503 17 1510 21 4 3 8 2 9
-3 0 -4 2 -17 4 -28 2 -11 7 -74 10 -140 4 -66 8 -156 11 -200 2 -44 6 -116 8
-160 4 -76 11 -202 21 -380 3 -44 8 -134 11 -200 3 -66 7 -133 9 -150 1 -16 3
-37 4 -46 1 -15 20 -16 184 -13 100 3 293 6 430 8 136 2 250 6 254 9 3 4 12 2
19 -4 8 -7 14 -7 19 1 4 7 12 7 26 0 11 -6 24 -8 30 -4 6 3 102 7 215 8 112 2
206 5 209 8 6 6 6 28 1 163 -7 202 -18 480 -31 845 -3 96 -7 199 -9 227 -3 59
1 67 29 70 11 1 33 4 50 8 16 3 42 7 57 8 15 1 28 6 28 10 0 5 4 6 9 3 4 -3
35 -1 67 4 63 9 127 17 209 25 28 3 70 7 95 10 25 3 74 7 110 10 36 2 65 5 65
5 0 2 44 7 135 15 41 4 89 9 105 11 80 9 124 14 170 20 28 3 59 7 70 9 11 1
20 3 20 4 0 1 16 4 35 7 77 9 227 43 270 61 8 3 17 7 20 7 60 10 208 117 277
200 17 20 123 185 123 191 0 10 113 200 121 203 5 2 9 8 9 12 0 5 13 30 30 56
16 26 34 63 40 83 7 20 14 43 17 51 13 34 31 107 39 158 3 20 7 49 10 63 4 28
10 93 19 204 9 125 32 248 43 241 4 -2 36 -7 72 -11 36 -3 79 -8 95 -10 17 -2
50 -7 75 -10 25 -3 56 -7 70 -10 14 -2 52 -7 85 -10 33 -4 76 -9 95 -11 19 -2
60 -6 90 -9 30 -3 71 -7 90 -9 62 -8 283 -9 353 -1 114 12 119 15 143 77 20
52 50 184 46 201 -1 4 -4 37 -7 73 -6 83 -35 180 -79 264 -37 71 -31 68 -131
56 -63 -9 -92 -13 -130 -22 -16 -3 -41 -8 -55 -9 -14 -2 -25 -4 -25 -5 0 -1
-9 -3 -20 -4 -11 -2 -67 -13 -125 -26 -58 -12 -113 -24 -123 -26 -10 -2 -27
-6 -37 -9 -21 -7 -56 -15 -85 -19 -11 -2 -27 -6 -35 -10 -8 -3 -26 -8 -40 -10
-14 -3 -86 -20 -160 -39 -74 -19 -138 -32 -141 -28 -4 3 -19 47 -34 96 -34
116 -91 233 -154 315 -49 64 -177 193 -258 260 -24 19 -43 37 -43 41 0 7 362
189 378 189 5 0 12 4 14 8 2 4 44 27 93 51 50 24 92 45 94 47 2 2 -8 22 -23
44 -14 22 -26 44 -26 50 0 5 -4 10 -9 10 -5 0 -14 14 -21 30 -7 17 -16 30 -21
30 -5 0 -9 5 -9 10 0 13 -86 133 -161 225 -83 102 -199 210 -340 318 -57 43
-308 207 -318 207 -6 0 -11 4 -11 9 0 5 -8 11 -17 14 -18 6 -73 37 -83 47 -3
3 -23 15 -45 27 -33 18 -40 27 -38 50 3 48 7 63 15 63 4 0 8 8 8 18 0 9 18 76
41 147 22 72 42 138 44 149 5 20 35 121 71 235 13 41 23 75 21 76 -57 33 -244
110 -372 153 -121 41 -315 93 -395 107 -14 2 -36 7 -50 10 -42 10 -64 14 -100
19 -19 3 -45 7 -57 10 -12 3 -50 7 -85 11 -35 3 -74 8 -88 10 -47 9 -225 22
-373 26 -48 1 -90 6 -93 11 -3 4 14 27 38 52 24 24 63 68 88 97 25 30 61 72
81 94 64 72 97 110 119 135 40 47 135 154 153 172 9 10 16 18 15 19 -17 5 -56
9 -118 14 -41 2 -111 7 -155 11 -44 3 -105 7 -135 9 -52 3 -226 14 -315 20
-315 22 -875 22 -1160 1 -104 -8 -214 -18 -255 -22 -48 -5 -134 -14 -190 -19
-33 -3 -97 -11 -150 -20 -14 -3 -50 -7 -80 -10 -30 -3 -68 -8 -85 -11 -16 -3
-39 -7 -50 -8 -11 -2 -39 -6 -62 -10 l-42 -8 10 34 c6 18 12 42 14 53 3 11 16
61 30 110 15 50 33 117 41 149 8 33 20 66 26 73 6 7 8 13 5 13 -3 0 3 30 14
67 24 85 24 92 -1 90 -12 -1 -22 -2 -23 -4z"/>
</g>
</svg>
